<svg xmlns="http://www.w3.org/2000/svg" xmlns:xlink="http://www.w3.org/1999/xlink" id="Layer_1" x="0" y="0" version="1.1" viewBox="0 0 500 500" xml:space="preserve" style="enable-background:new 0 0 500 500"><style type="text/css">.st0{fill:#3498db}</style><g id="XMLID_1_"><path id="XMLID_5_" d="M172.8,87.6c-9.9,0-19.5,5.6-24.5,14.2L71.2,235.8c-4.9,8.6-4.9,19.7,0,28.3l77.2,134.1 c5,8.5,14.6,14.1,24.5,14.2h154.4c9.9,0,19.5-5.6,24.5-14.2l77.2-134.1c4.9-8.6,4.9-19.7,0-28.3l-77.2-134.1 c-5-8.5-14.6-14.1-24.5-14.2H172.8z M174.2,166.1c0.2,0,0.4,0,0.6,0h26.6c1.2,0,2.3,0.7,2.9,1.7l45.2,80.5c0.2,0.4,0.4,0.8,0.4,1.3 c0.1-0.5,0.2-0.9,0.4-1.3l45.1-80.5c0.6-1.1,1.8-1.7,3-1.7h26.6c2.4,0,4.1,3,3,5.1L284.1,250l44.1,78.8c1.2,2.1-0.6,5.2-3,5.2 h-26.6c-1.2,0-2.4-0.7-3-1.8l-45.1-80.5c-0.2-0.4-0.4-0.8-0.4-1.3c-0.1,0.5-0.2,0.9-0.4,1.3l-45.2,80.5c-0.6,1.1-1.7,1.8-2.9,1.8 h-26.6c-2.4,0-4.2-3.1-3-5.2l44.1-78.8l-44.1-78.9C170.8,169.2,172.1,166.5,174.2,166.1z" class="st0"/></g></svg>